<svg width="455" height="428" xmlns="http://www.w3.org/2000/svg" xmlns:xlink="http://www.w3.org/1999/xlink"><svg width="43" height="38" viewBox="-2 -2 43 38" id="browser-icon" x="358.8" y="327.77" xmlns="http://www.w3.org/2000/svg"><path fill-rule="evenodd" clip-rule="evenodd" fill="#FFF" d="M35.344 0H3.656A3.649 3.649 0 0 0 0 3.642V34h39V3.642A3.648 3.648 0 0 0 35.344 0zM17.672 2.428c1.009 0 1.828.816 1.828 1.821a1.825 1.825 0 0 1-1.828 1.822 1.826 1.826 0 0 1-1.829-1.822 1.826 1.826 0 0 1 1.829-1.821zm-6.093 0c1.009 0 1.828.816 1.828 1.821a1.825 1.825 0 0 1-1.828 1.822A1.826 1.826 0 0 1 9.75 4.249c0-1.005.818-1.821 1.829-1.821zm-6.095 0c1.01 0 1.828.816 1.828 1.821 0 1.006-.818 1.822-1.828 1.822S3.656 5.255 3.656 4.25c0-1.006.819-1.822 1.828-1.822zm31.079 29.144H2.438V8.5h34.125v23.072z"/></svg><svg width="38" height="33" viewBox="-2 -2 38 33" id="camera-icon" x="276" y="207.4" xmlns="http://www.w3.org/2000/svg"><path fill-rule="evenodd" clip-rule="evenodd" fill="#FFF" d="M17 10.444a6.084 6.084 0 1 0 0 12.168 6.084 6.084 0 0 0 0-12.168zm0 8.113a2.028 2.028 0 1 1 0-4.056 2.028 2.028 0 0 1 0 4.056zM30.183 4.359h-7.148c.021-.111.051-.218.051-.338V1.655c0-.747-.454-1.353-1.014-1.353H11.93c-.56 0-1.014.605-1.014 1.353v2.366c0 .12.029.227.051.338h-7.15A3.041 3.041 0 0 0 .775 7.401v18.254a3.042 3.042 0 0 0 3.042 3.042h26.365a3.042 3.042 0 0 0 3.043-3.042V7.401a3.042 3.042 0 0 0-3.042-3.042zM12.944 2.331h8.113v1.015h-8.113V2.331zM17 25.655a9.126 9.126 0 0 1-9.126-9.127A9.127 9.127 0 1 1 17 25.655z"/></svg><svg width="40" height="35" viewBox="-2 -2 40 35" id="escape" x="399.8" y="365.77" xmlns="http://www.w3.org/2000/svg"><path fill="#FFF" d="M35.01.073C34.338.327 1.122 12.858.467 13.104c-.555.21-.681.723-.019 1.006l7.426 3.185 4.401 1.889S33.481 2.517 33.768 2.289c.289-.227.623.199.412.442l-15.4 17.832c-.002 0-.002.002-.002.002l-.883 1.056 1.17.676 9.746 5.616c.567.328 1.31.056 1.473-.701.193-.895 5.564-25.683 5.688-26.234.152-.722-.29-1.159-.962-.905zM12.235 30.501c0 .517.271.661.648.294.491-.477 5.573-5.361 5.573-5.361l-6.222-3.444.001 8.511z"/></svg><svg width="54" height="94" viewBox="-2 -2 54 94" id="facebook" x="358.8" y="233.77" xmlns="http://www.w3.org/2000/svg"><path fill="#FFF" d="M50 15.646H35.717c-1.688 0-3.574 2.221-3.574 5.192v10.314H50v14.7H32.143V90H15.285V45.854H0v-14.7h15.285V22.5c0-12.407 8.611-22.5 20.432-22.5H50v15.646z"/></svg><svg width="227" height="227" viewBox="-2 -2 227 227" id="flow-tree-icon" y="201" xmlns="http://www.w3.org/2000/svg"><path fill="#E0E0E0" d="M168.393 17.199h-27.238c-16.449 0-40.923 10.898-40.923 40.923v23.723c0 16.748-8.218 18.307-12.455 18.386H54.61c-4.37-10.115-14.424-17.2-26.142-17.2C12.749 83.032 0 95.779 0 111.5c0 15.723 12.749 28.468 28.468 28.468 11.718 0 21.772-7.085 26.142-17.2h33.166c3.07 0 12.455.888 12.455 18.387v23.723c0 30.025 24.474 40.923 40.923 40.923h27.238c4.366 10.115 14.424 17.199 26.14 17.199C210.253 223 223 210.254 223 194.532s-12.747-28.468-28.468-28.468c-11.716 0-21.772 7.084-26.14 17.199h-27.238c-3.07 0-18.387-.887-18.387-18.387v-23.723c0-7.201-1.088-13.272-2.935-18.387h48.56c4.366 10.115 14.424 17.2 26.14 17.2 15.722 0 28.468-12.745 28.468-28.468 0-15.721-12.747-28.468-28.468-28.468-11.716 0-21.772 7.085-26.14 17.2h-48.56c1.847-5.113 2.935-11.185 2.935-18.386V58.123c0-16.748 14.148-18.307 18.387-18.386h27.238c4.366 10.115 14.424 17.199 26.14 17.199C210.253 56.936 223 44.19 223 28.468 223 12.747 210.253 0 194.532 0c-11.716 0-21.773 7.084-26.139 17.199zm26.139 160.908c9.069 0 16.423 7.356 16.423 16.424 0 9.07-7.354 16.423-16.423 16.423-9.07 0-16.423-7.353-16.423-16.423-.002-9.067 7.353-16.424 16.423-16.424zM28.468 127.923c-9.07 0-16.423-7.354-16.423-16.423 0-9.07 7.353-16.423 16.423-16.423 9.07 0 16.423 7.354 16.423 16.423.001 9.068-7.353 16.423-16.423 16.423zm166.064-32.846c9.069 0 16.423 7.354 16.423 16.423 0 9.068-7.354 16.423-16.423 16.423-9.07 0-16.423-7.354-16.423-16.423-.002-9.07 7.353-16.423 16.423-16.423zm16.423-66.609c0 9.067-7.354 16.423-16.423 16.423-9.07 0-16.423-7.356-16.423-16.423 0-9.07 7.354-16.423 16.423-16.423s16.423 7.353 16.423 16.423z"/></svg><svg width="94.61" height="93" viewBox="-2 -2 94.61 93" id="google-plus" x="358.8" y="78.77" xmlns="http://www.w3.org/2000/svg"><path fill="#FFF" d="M5.254 22.443c0 7.468 2.494 12.859 7.412 16.027 4.025 2.594 8.701 2.981 11.129 2.981.59 0 1.063-.022 1.394-.044 0 0-.771 5.016 2.949 9.981l-.168-.003C21.525 51.385.5 52.732.5 70.015c0 17.584 19.31 18.478 23.183 18.478.303 0 .479-.007.479-.007.043.002.32.013.791.013 2.486 0 8.912-.313 14.879-3.213C47.572 81.529 51.5 74.994 51.5 65.861c0-8.824-5.981-14.076-10.35-17.916-2.666-2.338-4.969-4.357-4.969-6.321 0-2.001 1.682-3.505 3.809-5.41 3.445-3.081 6.691-7.466 6.691-15.755 0-7.287-.945-12.178-6.767-15.281.607-.311 2.752-.537 3.814-.684 3.153-.431 7.77-.92 7.77-3.496V.5H28.506c-.231.006-23.252.859-23.252 21.943zm37.117 45.064c.439 7.033-5.576 12.222-14.606 12.879-9.175.671-16.728-3.46-17.166-10.483-.214-3.373 1.271-6.684 4.176-9.315 2.947-2.669 6.992-4.313 11.393-4.639a24.467 24.467 0 0 1 1.549-.054c8.488 0 14.238 4.989 14.654 11.612zm-6.004-49.876c2.256 7.934-1.15 16.229-6.578 17.759a7.11 7.11 0 0 1-1.922.265c-4.973 0-9.9-5.031-11.725-11.96-1.021-3.894-.938-7.296.231-10.568 1.15-3.219 3.215-5.393 5.814-6.124a7.059 7.059 0 0 1 1.924-.267c6.006-.001 9.866 2.489 12.256 10.895zM75.109 34.91v-15h-9.5v15h-15v9.5h15v15h9.5v-15h15v-9.5h-15z"/></svg><svg width="41" height="41" viewBox="-2 -2 41 41" id="ipad-icon" x="358.8" y="365.77" xmlns="http://www.w3.org/2000/svg"><path fill-rule="evenodd" clip-rule="evenodd" fill="#FFF" d="M25.438 30.063V2.313A2.313 2.313 0 0 0 23.125 0H2.313A2.312 2.312 0 0 0 0 2.313v27.75a2.311 2.311 0 0 0 2.313 2.313h20.813a2.312 2.312 0 0 0 2.312-2.313zm-12.719 1.156a1.154 1.154 0 0 1 0-2.307 1.154 1.154 0 1 1 0 2.307zm9.25-3.469h-18.5V3.469h18.5V27.75zm12.719-16.187h-8.095v3.469h5.781v18.503H4.625v1.151a2.312 2.312 0 0 0 2.313 2.313h27.751A2.308 2.308 0 0 0 37 34.688V13.876a2.313 2.313 0 0 0-2.312-2.313zm0 13.874a1.154 1.154 0 1 1 0-2.306 1.153 1.153 0 1 1 0 2.306z"/></svg><svg width="94" height="62" viewBox="-2 -2 94 62" id="mail-icon" x="358.8" y="171.77" xmlns="http://www.w3.org/2000/svg"><path fill="#FFF" d="M2.97 5.428c2.441 1.313 36.241 19.468 37.499 20.145 1.259.676 2.889 1.002 4.531 1.002 1.643 0 3.271-.326 4.531-1.002 1.258-.676 35.058-18.831 37.498-20.145C89.473 4.117 91.784 0 87.297 0H2.703c-4.484 0-2.176 4.117.267 5.428zm85.094 10c-2.773 1.447-36.836 19.26-38.533 20.145-1.699.887-2.889 1.002-4.531 1.002s-2.832-.115-4.531-1.002c-1.698-.885-35.758-18.698-38.533-20.145C-.017 14.411 0 15.604 0 16.526v36.679C0 55.301 2.792 58 4.959 58h80.082C87.208 58 90 55.301 90 53.205V16.526c0-.922.02-2.115-1.936-1.098z"/></svg><svg width="62" height="102" viewBox="-2 -2 62 102" id="mobile-icon" x="276" y="105.4" xmlns="http://www.w3.org/2000/svg"><path fill="#FFF" d="M48 0H10C4.5 0 0 4.5 0 10v78c0 5.5 4.5 10 10 10h38c5.5 0 10-4.5 10-10V10c0-5.5-4.5-10-10-10zM29 94c-3.865 0-7-2.238-7-5s3.135-5 7-5c3.863 0 7 2.238 7 5 0 2.764-3.137 5-7 5zm21-15H8V13h42v66z"/></svg><svg width="27" height="51" viewBox="-2 -2 27 51" id="person-icon" x="412.8" y="233.77" xmlns="http://www.w3.org/2000/svg"><path fill-rule="evenodd" clip-rule="evenodd" fill="#FFF" d="M11.5 17.233c-4.944 0-11.5 1.566-11.5 1.566l1.643 12.534 4.929 3.133v10.966s2.449 1.567 4.929 1.567c2.45 0 4.929-1.567 4.929-1.567V34.466l4.929-3.133L23 18.799s-6.587-1.566-11.5-1.566zm0-1.566c4.536 0 8.214-3.508 8.214-7.833C19.714 3.507 16.036 0 11.5 0S3.286 3.507 3.286 7.833c0 4.326 3.678 7.834 8.214 7.834z"/></svg><svg width="82.8" height="105.4" viewBox="-2 -2 82.8 105.4" id="pinterest" x="276" xmlns="http://www.w3.org/2000/svg"><path fill="#FFF" d="M32.48 66.836c-2.627 13.768-5.834 26.967-15.334 33.861-2.933-20.81 4.308-36.437 7.668-53.027-5.729-9.646.688-29.063 12.776-24.277 14.874 5.885-12.881 35.865 5.75 39.611 19.453 3.908 27.395-33.752 15.332-46C41.245-.681 7.941 16.601 12.036 41.92c.996 6.19 7.392 8.067 2.555 16.611C3.438 56.057.108 47.26.536 35.531c.689-19.197 17.25-32.64 33.859-34.498C55.401-1.32 75.116 8.744 77.839 28.504c3.064 22.303-9.48 46.459-31.943 44.721-6.088-.473-8.646-3.489-13.416-6.389z"/></svg><svg width="42" height="42" viewBox="-2 -2 42 42" id="star-icon" x="412.8" y="284.77" xmlns="http://www.w3.org/2000/svg"><path fill="#FFF" d="M38 14.25l-13.063-1.188L19 0l-5.938 13.063L0 14.25s4.381 5.848 9.848 9.95a.4.4 0 0 1 .011-.037l.005.05-.016-.013C7.616 31.635 7.125 38 7.125 38s6.046-3.209 11.834-7.213c.01.003.033.014.041.014a.15.15 0 0 0 .02-.007L30.875 38s-.494-6.381-2.729-13.826l-.017.012c.004-.011 0-.061 0-.061s.01.032.017.049C33.614 20.067 38 14.25 38 14.25z"/></svg><svg width="96" height="78.77" viewBox="-2 -2 96 78.77" id="twitter" x="358.8" xmlns="http://www.w3.org/2000/svg"><path fill="#FFF" d="M92 8.85a37.756 37.756 0 0 1-10.842 2.974c3.898-2.337 6.891-6.035 8.301-10.442a37.85 37.85 0 0 1-11.986 4.58A18.846 18.846 0 0 0 63.695 0C53.271 0 44.82 8.45 44.82 18.874c0 1.479.166 2.92.488 4.301-15.685-.786-29.597-8.301-38.904-19.721a18.781 18.781 0 0 0-2.557 9.488c0 6.549 3.332 12.324 8.396 15.71a18.8 18.8 0 0 1-8.549-2.358c-.002.078-.002.156-.002.236 0 9.146 6.508 16.773 15.141 18.508a18.857 18.857 0 0 1-8.524.323c2.402 7.498 9.375 12.956 17.633 13.107a37.87 37.87 0 0 1-23.441 8.081 37.82 37.82 0 0 1-4.502-.267 53.41 53.41 0 0 0 28.934 8.482c34.717 0 53.704-28.763 53.704-53.706 0-.815-.019-1.631-.056-2.441A38.25 38.25 0 0 0 92 8.85z"/></svg><svg width="276" height="201" viewBox="-2 -2 276 201" id="user-icon" xmlns="http://www.w3.org/2000/svg"><path fill-rule="evenodd" clip-rule="evenodd" fill="#E0E0E0" d="M105.466 125.285c34.455 0 62.486-28.102 62.486-62.643S139.921 0 105.466 0C71.013 0 42.981 28.101 42.981 62.642c0 34.541 28.032 62.643 62.485 62.643zm0-103.6c22.527 0 40.855 18.371 40.855 40.957 0 22.584-18.328 40.958-40.855 40.958-22.526 0-40.854-18.373-40.854-40.958 0-22.586 18.327-40.957 40.854-40.957zm28.624 105.93a10.767 10.767 0 0 0-10.254 2.053l-18.37 15.581-18.364-15.581a10.778 10.778 0 0 0-10.257-2.053C58.819 133.346 0 154.523 0 186.156 0 192.146 4.844 197 10.815 197h189.303c5.97 0 10.817-4.854 10.817-10.844.001-31.633-58.819-52.81-76.845-58.541zm-104.997 47.7c10.281-8.722 29.699-18.494 48.68-25.155l20.707 17.568a10.793 10.793 0 0 0 13.97 0l20.712-17.568c18.979 6.661 38.398 16.434 48.68 25.155H29.093zm206.388-48.413c-4.003-1.987-8.865-.348-10.861 3.67-1.988 4.019-.353 8.901 3.652 10.9 6.616 3.306 18.423 10.932 24.175 18.679h-28.834c-4.482 0-8.113 3.637-8.113 8.134 0 4.49 3.631 8.131 8.113 8.131h40.271c4.483 0 8.115-3.641 8.115-8.131.001-22.59-32.779-39.523-36.518-41.383zm-40.201-13.869c-6.638 0-12.875-2.589-17.571-7.295a8.094 8.094 0 0 0-11.471-.004c-3.164 3.174-3.164 8.327 0 11.502 7.755 7.778 18.068 12.059 29.042 12.059 22.649 0 41.073-18.47 41.073-41.183 0-22.701-18.424-41.172-41.073-41.172a40.74 40.74 0 0 0-15.983 3.238c-4.127 1.749-6.061 6.519-4.317 10.653 1.741 4.142 6.51 6.08 10.627 4.332a24.672 24.672 0 0 1 9.674-1.96c13.704 0 24.853 11.177 24.853 24.909-.001 13.746-11.15 24.921-24.854 24.921z"/></svg><svg width="43" height="28.32" viewBox="-2 -2 43 28.32" id="video-icon" x="401.8" y="327.77" xmlns="http://www.w3.org/2000/svg"><path fill-rule="evenodd" clip-rule="evenodd" fill="#FFF" d="M39 0l-9.75 6.547V4.053C29.25 1.813 27.378 0 25.071 0H4.178C1.87 0 0 1.813 0 4.053v16.213c0 2.239 1.87 4.054 4.178 4.054h20.893c2.308 0 4.179-1.814 4.179-4.054v-2.494L39 24.319V0z"/></svg></svg>