<?xml version="1.0" encoding="utf-8"?>
<!-- Generator: Adobe Illustrator 16.0.0, SVG Export Plug-In . SVG Version: 6.00 Build 0)  -->
<!DOCTYPE svg PUBLIC "-//W3C//DTD SVG 1.1//EN" "http://www.w3.org/Graphics/SVG/1.1/DTD/svg11.dtd">
<svg version="1.1" id="Browser-Icon_1_" xmlns="http://www.w3.org/2000/svg" xmlns:xlink="http://www.w3.org/1999/xlink" x="0px"
	 y="0px" width="39px" height="34px" viewBox="0 0 39 34" enable-background="new 0 0 39 34" xml:space="preserve">
<g id="Browser-Icon">
	<g>
		<path fill-rule="evenodd" clip-rule="evenodd" fill="#FFFFFF" d="M35.344,0H3.656C1.637,0,0,1.63,0,3.642V34h39V3.642
			C39,1.63,37.364,0,35.344,0z M17.672,2.428c1.009,0,1.828,0.816,1.828,1.821c0,1.006-0.818,1.822-1.828,1.822
			c-1.01,0-1.829-0.816-1.829-1.822C15.844,3.244,16.662,2.428,17.672,2.428z M11.579,2.428c1.009,0,1.828,0.816,1.828,1.821
			c0,1.006-0.818,1.822-1.828,1.822c-1.01,0-1.829-0.816-1.829-1.822C9.75,3.244,10.568,2.428,11.579,2.428z M5.484,2.428
			c1.01,0,1.828,0.816,1.828,1.821c0,1.006-0.818,1.822-1.828,1.822S3.656,5.255,3.656,4.25C3.656,3.244,4.475,2.428,5.484,2.428z
			 M36.563,31.572H2.438V8.5h34.125V31.572z"/>
	</g>
</g>
</svg>
