<?xml version="1.0" encoding="utf-8"?>
<!-- Generator: Adobe Illustrator 16.0.0, SVG Export Plug-In . SVG Version: 6.00 Build 0)  -->
<!DOCTYPE svg PUBLIC "-//W3C//DTD SVG 1.1//EN" "http://www.w3.org/Graphics/SVG/1.1/DTD/svg11.dtd">
<svg version="1.1" id="Camera_1_" xmlns="http://www.w3.org/2000/svg" xmlns:xlink="http://www.w3.org/1999/xlink" x="0px" y="0px"
	 width="34px" height="29px" viewBox="0 0 34 29" enable-background="new 0 0 34 29" xml:space="preserve">
<g id="Camera">
	<g>
		<path fill-rule="evenodd" clip-rule="evenodd" fill="#FFFFFF" d="M17,10.444c-3.36,0-6.084,2.724-6.084,6.084
			S13.64,22.613,17,22.613s6.085-2.725,6.085-6.085S20.36,10.444,17,10.444z M17,18.557c-1.12,0-2.028-0.908-2.028-2.028
			S15.88,14.5,17,14.5s2.028,0.908,2.028,2.028S18.12,18.557,17,18.557z M30.183,4.359h-7.148c0.021-0.111,0.051-0.218,0.051-0.338
			V1.655c0-0.747-0.454-1.353-1.014-1.353H11.93c-0.56,0-1.014,0.605-1.014,1.353v2.366c0,0.12,0.029,0.227,0.051,0.338H3.817
			c-1.681,0-3.042,1.362-3.042,3.042v18.254c0,1.68,1.362,3.042,3.042,3.042h26.365c1.681,0,3.043-1.362,3.043-3.042V7.401
			C33.226,5.722,31.863,4.359,30.183,4.359z M12.944,2.331h8.113v1.015h-8.113V2.331z M17,25.655c-5.041,0-9.126-4.086-9.126-9.127
			c0-5.04,4.086-9.127,9.126-9.127c5.04,0,9.127,4.087,9.127,9.127C26.127,21.569,22.04,25.655,17,25.655z"/>
	</g>
</g>
</svg>
