<?xml version="1.0" encoding="utf-8"?>
<!-- Generator: Adobe Illustrator 16.0.0, SVG Export Plug-In . SVG Version: 6.00 Build 0)  -->
<!DOCTYPE svg PUBLIC "-//W3C//DTD SVG 1.1//EN" "http://www.w3.org/Graphics/SVG/1.1/DTD/svg11.dtd">
<svg version="1.1" id="All_glyphs" xmlns="http://www.w3.org/2000/svg" xmlns:xlink="http://www.w3.org/1999/xlink" x="0px" y="0px"
	 width="36px" height="31px" viewBox="0 0 36 31" enable-background="new 0 0 36 31" xml:space="preserve">
<path fill="#FFFFFF" d="M35.01,0.073C34.338,0.327,1.122,12.858,0.467,13.104c-0.555,0.21-0.681,0.723-0.019,1.006
	c0.784,0.336,7.426,3.185,7.426,3.185l0,0l4.401,1.889c0,0,21.206-16.667,21.493-16.895c0.289-0.227,0.623,0.199,0.412,0.442
	c-0.211,0.245-15.4,17.832-15.4,17.832c-0.002,0-0.002,0.002-0.002,0.002l-0.883,1.056l1.17,0.676l0,0c0,0,9.1,5.243,9.746,5.616
	c0.567,0.328,1.31,0.056,1.473-0.701c0.193-0.895,5.564-25.683,5.688-26.234C36.124,0.256,35.682-0.181,35.01,0.073z M12.235,30.501
	c0,0.517,0.271,0.661,0.648,0.294c0.491-0.477,5.573-5.361,5.573-5.361l-6.222-3.444L12.235,30.501L12.235,30.501z"/>
</svg>
