<?xml version="1.0" encoding="utf-8"?>
<!-- Generator: Adobe Illustrator 16.0.0, SVG Export Plug-In . SVG Version: 6.00 Build 0)  -->
<!DOCTYPE svg PUBLIC "-//W3C//DTD SVG 1.1//EN" "http://www.w3.org/Graphics/SVG/1.1/DTD/svg11.dtd">
<svg version="1.1" id="All_glyphs" xmlns="http://www.w3.org/2000/svg" xmlns:xlink="http://www.w3.org/1999/xlink" x="0px" y="0px"
	 width="223px" height="223px" viewBox="0 0 223 223" enable-background="new 0 0 223 223" xml:space="preserve">
<path fill="#E0E0E0" d="M168.393,17.199h-27.238c-16.449,0-40.923,10.898-40.923,40.923v23.723c0,16.748-8.218,18.307-12.455,18.386
	H54.61c-4.37-10.115-14.424-17.2-26.142-17.2C12.749,83.032,0,95.779,0,111.5c0,15.723,12.749,28.468,28.468,28.468
	c11.718,0,21.772-7.085,26.142-17.2h33.166c3.07,0,12.455,0.888,12.455,18.387v23.723c0,30.025,24.474,40.923,40.923,40.923h27.238
	c4.366,10.115,14.424,17.199,26.14,17.199C210.253,223,223,210.254,223,194.532s-12.747-28.468-28.468-28.468
	c-11.716,0-21.772,7.084-26.14,17.199h-27.238c-3.07,0-18.387-0.887-18.387-18.387v-23.723c0-7.201-1.088-13.272-2.935-18.387h48.56
	c4.366,10.115,14.424,17.2,26.14,17.2c15.722,0,28.468-12.745,28.468-28.468c0-15.721-12.747-28.468-28.468-28.468
	c-11.716,0-21.772,7.085-26.14,17.2h-48.56c1.847-5.113,2.935-11.185,2.935-18.386V58.123c0-16.748,14.148-18.307,18.387-18.386
	h27.238c4.366,10.115,14.424,17.199,26.14,17.199C210.253,56.936,223,44.19,223,28.468C223,12.747,210.253,0,194.532,0
	C182.816,0,172.759,7.084,168.393,17.199z M194.532,178.107c9.069,0,16.423,7.356,16.423,16.424c0,9.07-7.354,16.423-16.423,16.423
	c-9.07,0-16.423-7.353-16.423-16.423C178.107,185.464,185.462,178.107,194.532,178.107z M28.468,127.923
	c-9.07,0-16.423-7.354-16.423-16.423c0-9.07,7.353-16.423,16.423-16.423c9.07,0,16.423,7.354,16.423,16.423
	C44.892,120.568,37.538,127.923,28.468,127.923z M194.532,95.077c9.069,0,16.423,7.354,16.423,16.423
	c0,9.068-7.354,16.423-16.423,16.423c-9.07,0-16.423-7.354-16.423-16.423C178.107,102.43,185.462,95.077,194.532,95.077z
	 M210.955,28.468c0,9.067-7.354,16.423-16.423,16.423c-9.07,0-16.423-7.356-16.423-16.423c0-9.07,7.354-16.423,16.423-16.423
	S210.955,19.398,210.955,28.468z"/>
</svg>
