<?xml version="1.0" encoding="utf-8"?>
<!-- Generator: Adobe Illustrator 16.0.0, SVG Export Plug-In . SVG Version: 6.00 Build 0)  -->
<!DOCTYPE svg PUBLIC "-//W3C//DTD SVG 1.1//EN" "http://www.w3.org/Graphics/SVG/1.1/DTD/svg11.dtd">
<svg version="1.1" id="All_glyphs" xmlns="http://www.w3.org/2000/svg" xmlns:xlink="http://www.w3.org/1999/xlink" x="0px" y="0px"
	 width="90.609px" height="89px" viewBox="0 0 90.609 89" enable-background="new 0 0 90.609 89" xml:space="preserve">
<path fill="#FFFFFF" stroke="#1B1818" stroke-miterlimit="10" d="M5.254,22.443c0,7.468,2.494,12.859,7.412,16.027
	c4.025,2.594,8.701,2.981,11.129,2.981c0.59,0,1.063-0.022,1.393-0.044c0,0-0.771,5.016,2.949,9.981l-0.168-0.002
	c-6.445,0-27.469,1.347-27.469,18.629c0,17.585,19.309,18.478,23.182,18.478c0.303,0,0.48-0.006,0.48-0.006
	c0.043,0.001,0.32,0.012,0.791,0.012c2.486,0,8.912-0.313,14.879-3.213C47.572,81.529,51.5,74.994,51.5,65.862
	c0-8.825-5.982-14.077-10.35-17.916c-2.666-2.338-4.969-4.358-4.969-6.322c0-2.001,1.682-3.505,3.809-5.41
	c3.445-3.081,6.691-7.466,6.691-15.755c0-7.287-0.945-12.178-6.766-15.281c0.607-0.311,2.752-0.537,3.814-0.684
	c3.154-0.431,7.77-0.92,7.77-3.496V0.5H28.506C28.275,0.506,5.254,1.359,5.254,22.443z M42.371,67.507
	c0.439,7.033-5.576,12.222-14.607,12.879c-9.174,0.67-16.727-3.46-17.166-10.483c-0.213-3.374,1.271-6.684,4.176-9.316
	c2.947-2.669,6.992-4.314,11.393-4.639c0.52-0.033,1.035-0.054,1.549-0.054C36.205,55.894,41.955,60.884,42.371,67.507z
	 M36.367,17.631c2.256,7.934-1.15,16.229-6.578,17.759c-0.623,0.175-1.27,0.265-1.922,0.265c-4.973,0-9.9-5.031-11.725-11.96
	c-1.02-3.894-0.938-7.296,0.232-10.568c1.15-3.219,3.215-5.393,5.814-6.124c0.625-0.177,1.273-0.267,1.924-0.267
	C30.117,6.735,33.977,9.225,36.367,17.631z M75.109,34.91v-15h-9.5v15h-15v9.5h15v15h9.5v-15h15v-9.5H75.109z"/>
</svg>
