<?xml version="1.0" encoding="utf-8"?>
<!-- Generator: Adobe Illustrator 16.0.0, SVG Export Plug-In . SVG Version: 6.00 Build 0)  -->
<!DOCTYPE svg PUBLIC "-//W3C//DTD SVG 1.1//EN" "http://www.w3.org/Graphics/SVG/1.1/DTD/svg11.dtd">
<svg version="1.1" id="iPad-Icon_1_" xmlns="http://www.w3.org/2000/svg" xmlns:xlink="http://www.w3.org/1999/xlink" x="0px"
	 y="0px" width="37px" height="37px" viewBox="0 0 37 37" enable-background="new 0 0 37 37" xml:space="preserve">
<g id="iPad-Icon">
	<g>
		<path fill-rule="evenodd" clip-rule="evenodd" fill="#FFFFFF" d="M25.438,30.063V2.313C25.438,1.035,24.402,0,23.125,0H2.313
			C1.035,0,0,1.035,0,2.313v27.75c0,1.28,1.035,2.313,2.313,2.313h20.813C24.402,32.375,25.438,31.343,25.438,30.063z
			 M12.719,31.219c-0.639,0-1.157-0.517-1.157-1.156c0-0.635,0.518-1.151,1.157-1.151s1.156,0.517,1.156,1.151
			C13.875,30.702,13.357,31.219,12.719,31.219z M21.969,27.75h-18.5V3.469h18.5V27.75z M34.688,11.563h-8.095v3.469h5.781v18.503
			H4.625v1.151c0,1.28,1.036,2.313,2.313,2.313h27.751C35.965,37,37,35.968,37,34.688V13.876C37,12.599,35.965,11.563,34.688,11.563
			z M34.688,25.437c-0.64,0-1.157-0.516-1.157-1.15c0-0.641,0.518-1.156,1.157-1.156c0.638,0,1.155,0.516,1.155,1.156
			C35.844,24.921,35.326,25.437,34.688,25.437z"/>
	</g>
</g>
</svg>
