<?xml version="1.0" encoding="utf-8"?>
<!-- Generator: Adobe Illustrator 16.0.0, SVG Export Plug-In . SVG Version: 6.00 Build 0)  -->
<!DOCTYPE svg PUBLIC "-//W3C//DTD SVG 1.1//EN" "http://www.w3.org/Graphics/SVG/1.1/DTD/svg11.dtd">
<svg version="1.1" id="All_glyphs" xmlns="http://www.w3.org/2000/svg" xmlns:xlink="http://www.w3.org/1999/xlink" x="0px" y="0px"
	 width="90px" height="58px" viewBox="0 0 90 58" enable-background="new 0 0 90 58" xml:space="preserve">
<g>
	<path fill="#FFFFFF" d="M2.97,5.428c2.441,1.313,36.241,19.468,37.499,20.145c1.259,0.676,2.889,1.002,4.531,1.002
		c1.643,0,3.271-0.326,4.531-1.002c1.258-0.676,35.058-18.831,37.498-20.145C89.473,4.117,91.784,0,87.297,0H2.703
		C-1.781,0,0.527,4.117,2.97,5.428z M88.064,15.428c-2.773,1.447-36.836,19.26-38.533,20.145c-1.699,0.887-2.889,1.002-4.531,1.002
		c-1.642,0-2.832-0.115-4.531-1.002C38.771,34.688,4.711,16.875,1.936,15.428C-0.017,14.411,0,15.604,0,16.526
		c0,0.922,0,36.679,0,36.679C0,55.301,2.792,58,4.959,58h80.082C87.208,58,90,55.301,90,53.205c0,0,0-35.757,0-36.679
		C90,15.604,90.02,14.411,88.064,15.428z"/>
</g>
</svg>
