<?xml version="1.0" encoding="utf-8"?>
<!-- Generator: Adobe Illustrator 16.0.0, SVG Export Plug-In . SVG Version: 6.00 Build 0)  -->
<!DOCTYPE svg PUBLIC "-//W3C//DTD SVG 1.1//EN" "http://www.w3.org/Graphics/SVG/1.1/DTD/svg11.dtd">
<svg version="1.1" id="Person-Icon_1_" xmlns="http://www.w3.org/2000/svg" xmlns:xlink="http://www.w3.org/1999/xlink" x="0px"
	 y="0px" width="23px" height="47px" viewBox="0 0 23 47" enable-background="new 0 0 23 47" xml:space="preserve">
<g id="Person-Icon">
	<g>
		<path fill-rule="evenodd" clip-rule="evenodd" fill="#FFFFFF" d="M11.5,17.233c-4.944,0-11.5,1.566-11.5,1.566l1.643,12.534
			l4.929,3.133v10.966c0,0,2.449,1.567,4.929,1.567c2.45,0,4.929-1.567,4.929-1.567V34.466l4.929-3.133L23,18.799
			C23,18.799,16.413,17.233,11.5,17.233z M11.5,15.667c4.536,0,8.214-3.508,8.214-7.833C19.714,3.507,16.036,0,11.5,0
			S3.286,3.507,3.286,7.833C3.286,12.159,6.964,15.667,11.5,15.667z"/>
	</g>
</g>
</svg>
