<?xml version="1.0" encoding="utf-8"?>
<!-- Generator: Adobe Illustrator 16.0.0, SVG Export Plug-In . SVG Version: 6.00 Build 0)  -->
<!DOCTYPE svg PUBLIC "-//W3C//DTD SVG 1.1//EN" "http://www.w3.org/Graphics/SVG/1.1/DTD/svg11.dtd">
<svg version="1.1" id="All_glyphs" xmlns="http://www.w3.org/2000/svg" xmlns:xlink="http://www.w3.org/1999/xlink" x="0px" y="0px"
	 width="78.795px" height="101.395px" viewBox="0 0 78.795 101.395" enable-background="new 0 0 78.795 101.395"
	 xml:space="preserve">
<path fill="#FFFFFF" d="M32.48,66.836c-2.627,13.768-5.834,26.967-15.334,33.861c-2.933-20.81,4.308-36.437,7.668-53.027
	c-5.729-9.646,0.688-29.063,12.776-24.277c14.874,5.885-12.881,35.865,5.75,39.611c19.453,3.908,27.395-33.752,15.332-46
	C41.245-0.681,7.941,16.601,12.036,41.92c0.996,6.19,7.392,8.067,2.555,16.611c-11.153-2.474-14.483-11.271-14.055-23
	c0.689-19.197,17.25-32.64,33.859-34.498C55.401-1.32,75.116,8.744,77.839,28.504c3.064,22.303-9.48,46.459-31.943,44.721
	C39.808,72.752,37.25,69.736,32.48,66.836z"/>
</svg>
