<?xml version="1.0" encoding="utf-8"?>
<!-- Generator: Adobe Illustrator 16.0.0, SVG Export Plug-In . SVG Version: 6.00 Build 0)  -->
<!DOCTYPE svg PUBLIC "-//W3C//DTD SVG 1.1//EN" "http://www.w3.org/Graphics/SVG/1.1/DTD/svg11.dtd">
<svg version="1.1" id="All_glyphs" xmlns="http://www.w3.org/2000/svg" xmlns:xlink="http://www.w3.org/1999/xlink" x="0px" y="0px"
	 width="78.795px" height="101.394px" viewBox="236.604 175.222 78.795 101.394"
	 enable-background="new 236.604 175.222 78.795 101.394" xml:space="preserve">
<path fill="#FFFFFF" stroke="#1B1818" stroke-miterlimit="10" d="M269.084,241.861c-2.627,13.768-5.834,26.967-15.334,33.861
	c-2.932-20.809,4.307-36.436,7.668-53.027c-5.73-9.646,0.689-29.063,12.777-24.277c14.873,5.885-12.881,35.865,5.75,39.611
	c19.453,3.908,27.395-33.752,15.332-46c-17.428-17.684-50.732-0.402-46.637,24.916c0.996,6.191,7.391,8.068,2.555,16.611
	c-11.154-2.473-14.484-11.27-14.055-23c0.689-19.197,17.25-32.639,33.859-34.498c21.006-2.352,40.721,7.711,43.443,27.471
	c3.065,22.303-9.48,46.459-31.943,44.721C276.412,247.777,273.855,244.762,269.084,241.861z"/>
</svg>
