<?xml version="1.0" encoding="utf-8"?>
<!-- Generator: Adobe Illustrator 16.0.0, SVG Export Plug-In . SVG Version: 6.00 Build 0)  -->
<!DOCTYPE svg PUBLIC "-//W3C//DTD SVG 1.1//EN" "http://www.w3.org/Graphics/SVG/1.1/DTD/svg11.dtd">
<svg version="1.1" id="Star-Icon_1_" xmlns="http://www.w3.org/2000/svg" xmlns:xlink="http://www.w3.org/1999/xlink" x="0px"
	 y="0px" width="38px" height="38px" viewBox="0 0 38 38" enable-background="new 0 0 38 38" xml:space="preserve">
<g id="Star-Icon">
	<g>
		<path fill="#FFFFFF" d="M38,14.25l-13.063-1.188L19,0l-5.938,13.063L0,14.25c0,0,4.381,5.848,9.848,9.95
			c0.003-0.013,0.007-0.025,0.011-0.037c0.002,0.016,0.005,0.05,0.005,0.05S9.853,24.204,9.848,24.2C7.616,31.635,7.125,38,7.125,38
			s6.046-3.209,11.834-7.213c0.01,0.003,0.033,0.014,0.041,0.014c0.003,0,0.02-0.007,0.02-0.007L30.875,38
			c0,0-0.494-6.381-2.729-13.826c-0.007,0.004-0.012,0.008-0.017,0.012c0.004-0.011,0-0.061,0-0.061s0.01,0.032,0.017,0.049
			C33.614,20.067,38,14.25,38,14.25z"/>
	</g>
</g>
</svg>
