<?xml version="1.0" encoding="utf-8"?>
<!-- Generator: Adobe Illustrator 16.0.0, SVG Export Plug-In . SVG Version: 6.00 Build 0)  -->
<!DOCTYPE svg PUBLIC "-//W3C//DTD SVG 1.1//EN" "http://www.w3.org/Graphics/SVG/1.1/DTD/svg11.dtd">
<svg version="1.1" id="Users-Icon_1_" xmlns="http://www.w3.org/2000/svg" xmlns:xlink="http://www.w3.org/1999/xlink" x="0px"
	 y="0px" width="272px" height="197px" viewBox="0 0 272 197" enable-background="new 0 0 272 197" xml:space="preserve">
<g id="Users-Icon_3_">
	<g>
		<path fill-rule="evenodd" clip-rule="evenodd" fill="#E0E0E0" d="M105.466,125.285c34.455,0,62.486-28.102,62.486-62.643
			C167.952,28.101,139.921,0,105.466,0C71.013,0,42.981,28.101,42.981,62.642C42.981,97.183,71.013,125.285,105.466,125.285z
			 M105.466,21.685c22.527,0,40.855,18.371,40.855,40.957c0,22.584-18.328,40.958-40.855,40.958
			c-22.526,0-40.854-18.373-40.854-40.958C64.612,40.056,82.939,21.685,105.466,21.685z M134.09,127.615
			c-3.541-1.134-7.42-0.356-10.254,2.053l-18.37,15.581l-18.364-15.581c-2.843-2.409-6.722-3.188-10.257-2.053
			C58.819,133.346,0,154.523,0,186.156C0,192.146,4.844,197,10.815,197h189.303c5.97,0,10.817-4.854,10.817-10.844
			C210.936,154.523,152.116,133.346,134.09,127.615z M29.093,175.315c10.281-8.722,29.699-18.494,48.68-25.155l20.707,17.568
			c4.034,3.42,9.942,3.42,13.97,0l20.712-17.568c18.979,6.661,38.398,16.434,48.68,25.155H29.093z M235.481,126.902
			c-4.003-1.987-8.865-0.348-10.861,3.67c-1.988,4.019-0.353,8.901,3.652,10.9c6.616,3.306,18.423,10.932,24.175,18.679h-28.834
			c-4.482,0-8.113,3.637-8.113,8.134c0,4.49,3.631,8.131,8.113,8.131h40.271c4.483,0,8.115-3.641,8.115-8.131
			C272,145.695,239.22,128.762,235.481,126.902z M195.28,113.033c-6.638,0-12.875-2.589-17.571-7.295
			c-3.165-3.179-8.302-3.179-11.471-0.004c-3.164,3.174-3.164,8.327,0,11.502c7.755,7.778,18.068,12.059,29.042,12.059
			c22.649,0,41.073-18.47,41.073-41.183c0-22.701-18.424-41.172-41.073-41.172c-5.534,0-10.912,1.089-15.983,3.238
			c-4.127,1.749-6.061,6.519-4.317,10.653c1.741,4.142,6.51,6.08,10.627,4.332c3.064-1.298,6.32-1.96,9.674-1.96
			c13.704,0,24.853,11.177,24.853,24.909C220.133,101.858,208.984,113.033,195.28,113.033z"/>
	</g>
</g>
</svg>
